<svg id="Calque_1" data-name="Calque 1" xmlns="http://www.w3.org/2000/svg" viewBox="0 0 215.12 37.68"><defs><style>.cls-1{fill:#fff;fill-rule:evenodd;}</style></defs><title>Sans titre - 1</title><polygon class="cls-1" points="196.51 17.52 194.6 18.3 192.84 18.92 191.09 19.38 189.47 19.85 187.72 20.31 186.1 20.62 184.64 20.78 183.03 20.93 181.56 21.09 179.95 21.09 178.48 20.93 177.02 20.78 175.56 20.47 174.09 20.16 172.48 19.69 171.01 19.23 169.69 18.61 168.52 17.83 167.35 16.9 166.32 15.82 165.44 14.73 164.86 13.49 164.42 12.25 164.27 11.01 164.42 9.77 164.56 8.84 165 7.91 165.74 7.13 166.62 6.51 167.79 5.89 169.11 5.43 170.86 4.81 172.33 4.34 173.79 3.88 175.26 3.57 176.73 3.1 178.19 2.95 179.66 2.64 181.12 2.48 182.59 2.48 184.05 2.33 185.52 2.33 186.98 2.48 188.45 2.48 189.91 2.64 191.53 2.79 192.99 3.1 194.46 3.41 197.68 4.34 200.76 5.58 203.84 7.29 206.47 9.3 208.53 11.63 209.84 14.42 210.28 17.37 209.4 20.78 208.53 22.33 207.5 23.88 206.18 25.27 204.72 26.67 202.81 28.06 200.76 29.15 198.56 30.39 196.07 31.32 193.28 32.25 190.21 32.87 186.98 33.49 183.47 33.8 179.8 34.11 175.85 34.11 171.6 33.96 167.2 33.49 164.27 33.18 161.34 32.72 158.7 32.41 156.06 31.94 153.57 31.48 151.23 31.01 148.74 30.39 146.39 29.77 144.05 29.15 141.7 28.38 139.36 27.6 137.01 26.67 134.52 25.59 132.03 24.5 129.54 23.26 126.76 21.86 121.48 18.92 117.08 16.13 113.57 13.49 110.93 11.01 109.17 8.84 108.44 7.13 108.58 6.05 109.9 5.74 112.69 5.89 115.18 6.51 117.52 7.44 119.43 8.68 121.04 9.92 122.21 11.32 122.95 12.71 123.24 13.8 122.8 15.97 121.48 17.37 119.58 17.99 117.23 18.14 114.89 17.83 112.54 17.21 110.49 16.59 108.88 15.97 105.51 14.58 101.99 13.34 98.62 12.09 95.25 11.01 91.73 10.08 88.36 9.15 84.99 8.37 81.48 7.75 78.11 7.13 74.73 6.67 71.36 6.2 68 5.89 64.62 5.74 61.11 5.58 57.74 5.58 54.37 5.58 50.99 5.74 47.63 5.89 44.25 6.2 40.88 6.67 37.37 7.13 34 7.6 30.63 8.22 27.26 8.99 23.89 9.77 20.52 10.7 17 11.63 13.63 12.56 10.26 13.65 6.89 14.88 3.37 16.13 0 17.37 3.52 16.28 7.03 15.35 10.4 14.42 13.77 13.49 17.14 12.71 20.52 11.94 23.74 11.16 26.96 10.54 30.19 9.92 33.41 9.3 36.49 8.84 39.71 8.37 42.79 8.06 46.01 7.75 49.09 7.44 52.31 7.44 55.54 7.29 58.62 7.44 61.84 7.44 65.06 7.75 68.29 8.06 71.66 8.37 75.03 8.99 78.4 9.61 81.77 10.23 85.29 11.01 88.8 11.94 92.47 13.02 96.13 14.27 99.79 15.51 103.6 16.9 107.56 18.45 114.89 21.09 120.31 22.02 123.83 21.86 126.02 20.78 127.05 19.07 127.2 17.06 126.76 15.2 125.88 13.65 124.85 12.25 123.53 10.85 121.77 9.46 119.87 8.06 117.67 6.82 115.18 5.89 112.69 5.27 109.9 4.96 108.73 5.12 107.85 5.58 107.41 6.2 107.41 6.98 107.56 7.91 108.15 9.15 109.02 10.39 110.2 11.63 111.52 13.18 112.98 14.73 114.74 16.13 116.79 17.68 118.84 19.23 121.04 20.78 123.39 22.17 125.73 23.57 128.22 24.81 130.71 26.05 133.2 27.13 135.69 28.22 138.19 29.31 140.68 30.24 143.17 31.17 145.81 32.1 148.44 32.87 150.93 33.65 153.57 34.27 156.36 34.89 159 35.51 161.78 35.97 164.56 36.44 167.49 36.9 170.42 37.21 173.65 37.52 176.87 37.68 180.24 37.68 183.61 37.52 186.98 37.21 190.35 36.75 193.72 36.13 196.95 35.2 200.03 34.11 202.96 32.87 205.59 31.17 208.08 29.31 210.28 26.98 212.19 24.5 213.8 21.55 214.68 18.92 215.12 16.59 215.12 14.27 214.68 12.4 213.8 10.54 212.78 8.84 211.31 7.44 209.7 6.2 207.94 4.96 206.03 4.03 204.13 3.26 202.22 2.48 200.17 1.86 198.41 1.4 196.66 1.09 195.04 0.78 193.43 0.47 191.82 0.31 190.21 0.15 188.59 0.15 187.13 0 185.66 0 184.2 0 182.73 0.15 181.27 0.31 179.8 0.47 178.34 0.78 176.87 1.09 175.41 1.4 173.79 1.86 172.33 2.33 170.72 2.79 168.37 3.57 166.62 4.5 165.15 5.27 164.12 6.36 163.24 7.29 162.8 8.53 162.66 9.77 162.66 11.32 162.8 12.87 163.24 14.27 163.98 15.51 164.86 16.59 165.88 17.68 167.35 18.76 168.96 19.69 170.86 20.47 172.33 21.09 173.79 21.55 175.26 21.86 176.73 22.17 178.19 22.33 179.66 22.48 181.27 22.48 182.73 22.33 184.35 22.17 185.96 21.86 187.57 21.4 189.33 20.93 190.94 20.16 192.84 19.38 194.6 18.61 196.51 17.52 196.51 17.52"/></svg>